<svg width="43" height="43" viewBox="0 0 43 43" fill="none" xmlns="http://www.w3.org/2000/svg">
<path d="M26.8872 5.83381C30.1869 5.11946 34.2804 5.15517 39.8511 6.54438C40.8111 6.78377 41.3947 7.75416 41.1548 8.71182C40.9148 9.66947 39.9421 10.2517 38.9821 10.0123C33.8031 8.7208 30.2822 8.75672 27.6471 9.32718C25.004 9.89939 23.1038 11.0343 21.0909 12.2615L20.9402 12.3534C18.9998 13.5372 16.8512 14.8481 14.0125 15.32C11.0681 15.8095 7.58987 15.3767 2.91865 13.5125C1.99994 13.1459 1.55312 12.1057 1.92063 11.1892C2.28815 10.2727 3.33083 9.82692 4.24954 10.1936C8.53645 11.9044 11.329 12.1421 13.4235 11.7939C15.55 11.4404 17.1712 10.4618 19.2224 9.21129C21.2406 7.98088 23.5956 6.5464 26.8872 5.83381Z" fill="#909090"/>
<path d="M39.8511 13.6937C34.2804 12.3045 30.1869 12.2688 26.8872 12.9832C23.5956 13.6958 21.2406 15.1302 19.2224 16.3607C17.1712 17.6112 15.55 18.5898 13.4235 18.9433C11.329 19.2915 8.53645 19.0537 4.24954 17.3429C3.33083 16.9763 2.28815 17.422 1.92063 18.3385C1.55312 19.2551 1.99994 20.2952 2.91865 20.6619C7.58987 22.5261 11.0681 22.9588 14.0125 22.4693C16.8512 21.9974 18.9998 20.6866 20.9402 19.5028L21.0909 19.4109C23.1038 18.1837 25.004 17.0487 27.6471 16.4765C30.2822 15.9061 33.8031 15.8702 38.9821 17.1617C39.9421 17.4011 40.9148 16.8188 41.1548 15.8612C41.3947 14.9035 40.8111 13.9331 39.8511 13.6937Z" fill="#909090"/>
<path fill-rule="evenodd" clip-rule="evenodd" d="M34.0416 17.9643C33.4196 17.9643 32.9011 18.2856 32.5395 18.7717C32.4125 18.9434 32.1188 19.3451 31.7287 19.9072C31.2099 20.6548 30.5154 21.6939 29.8179 22.8535C29.1238 24.0077 28.4077 25.3127 27.8599 26.5879C27.3353 27.809 26.8733 29.135 26.8752 30.4793C26.8763 30.8566 26.9215 31.2357 26.9835 31.6072C27.087 32.227 27.2974 33.0806 27.7361 33.9559C28.1783 34.8382 28.8697 35.7749 29.9404 36.487C31.0223 37.2066 32.3844 37.625 34.0416 37.625C35.6989 37.625 37.0609 37.2066 38.1428 36.487C39.2135 35.7749 39.905 34.8383 40.3472 33.956C40.7859 33.0807 40.9963 32.227 41.0999 31.6073C41.162 31.2354 41.2077 30.8553 41.2082 30.4774C41.2089 29.1331 40.7482 27.8091 40.2235 26.5879C39.6757 25.3127 38.9595 24.0076 38.2654 22.8535C37.5679 21.6939 36.8733 20.6548 36.3545 19.9072C35.9644 19.345 35.6707 18.9433 35.5437 18.7717C35.182 18.2855 34.6636 17.9642 34.0416 17.9643ZM36.93 27.996C36.47 26.9253 35.8424 25.7728 35.1928 24.6927C34.7977 24.0359 34.4016 23.4175 34.0416 22.875C33.6817 23.4174 33.2856 24.0359 32.8905 24.6927C32.241 25.7727 31.6134 26.9253 31.1534 27.996L31.1274 28.0566C30.8108 28.7929 30.4365 29.6633 30.4588 30.4764C30.4803 31.1197 30.6536 31.7836 30.9411 32.3574C31.1707 32.8156 31.4871 33.2194 31.928 33.5127C32.3578 33.7985 33.0114 34.0503 34.0416 34.0503C35.0719 34.0503 35.7254 33.7985 36.1552 33.5127C36.5962 33.2194 36.9126 32.8155 37.1422 32.3573C37.4298 31.7836 37.6032 31.1196 37.6247 30.4763C37.6469 29.6633 37.2727 28.793 36.9562 28.0569L36.93 27.996Z" fill="#909090"/>
<path d="M25.3158 20.6594C26.678 20.2185 27.7224 21.6361 27.0819 22.914C26.7893 23.4978 26.4602 23.9947 25.8059 24.2259C24.0552 24.8443 22.605 25.7152 21.0909 26.6382L20.9402 26.7302C18.9999 27.914 16.8512 29.2248 14.0125 29.6967C11.0681 30.1862 7.58989 29.7535 2.91867 27.8893C1.99997 27.5226 1.55314 26.4824 1.92066 25.5659C2.28817 24.6494 3.33086 24.2037 4.24956 24.5703C8.53647 26.2811 11.329 26.5189 13.4235 26.1707C15.55 25.8172 17.1712 24.8386 19.2224 23.588C21.1717 22.3996 23.1778 21.3514 25.3158 20.6594Z" fill="#909090"/>
</svg>
