<svg width="43" height="43" viewBox="0 0 43 43" fill="none" xmlns="http://www.w3.org/2000/svg">
<path d="M30.4583 21.5C30.4583 26.4475 26.4475 30.4583 21.5 30.4583C16.5524 30.4583 12.5417 26.4475 12.5417 21.5C12.5417 16.5524 16.5524 12.5417 21.5 12.5417C26.4475 12.5417 30.4583 16.5524 30.4583 21.5ZM16.1347 21.5C16.1347 24.4632 18.5368 26.8653 21.5 26.8653C24.4632 26.8653 26.8653 24.4632 26.8653 21.5C26.8653 18.5368 24.4632 16.1347 21.5 16.1347C18.5368 16.1347 16.1347 18.5368 16.1347 21.5Z" fill="#909090"/>
<path d="M19.7083 1.79167C19.7083 0.802156 20.5105 0 21.5 0C22.4895 0 23.2917 0.802157 23.2917 1.79167V7.16667C23.2917 8.15618 22.4895 8.95833 21.5 8.95833C20.5105 8.95833 19.7083 8.15618 19.7083 7.16667V1.79167Z" fill="#909090"/>
<path d="M1.79167 23.2917C0.802157 23.2917 4.32529e-08 22.4895 0 21.5C-4.32529e-08 20.5105 0.802157 19.7083 1.79167 19.7083H7.16667C8.15618 19.7083 8.95833 20.5105 8.95833 21.5C8.95833 22.4895 8.15618 23.2917 7.16667 23.2917H1.79167Z" fill="#909090"/>
<path d="M6.29721 8.83102C5.59752 8.13133 5.59752 6.99691 6.29721 6.29722C6.9969 5.59753 8.13132 5.59753 8.83101 6.29722L12.6317 10.0979C13.3314 10.7976 13.3314 11.932 12.6317 12.6317C11.932 13.3314 10.7976 13.3314 10.0979 12.6317L6.29721 8.83102Z" fill="#909090"/>
<path d="M8.83096 36.7028C8.13127 37.4025 6.99685 37.4025 6.29716 36.7028C5.59747 36.0031 5.59747 34.8687 6.29716 34.169L10.0979 30.3683C10.7975 29.6686 11.932 29.6686 12.6317 30.3683C13.3313 31.068 13.3313 32.2024 12.6317 32.9021L8.83096 36.7028Z" fill="#909090"/>
<path d="M19.7083 35.8333C19.7083 34.8438 20.5105 34.0417 21.5 34.0417C22.4895 34.0417 23.2917 34.8438 23.2917 35.8333V41.2083C23.2917 42.1978 22.4895 43 21.5 43C20.5105 43 19.7083 42.1978 19.7083 41.2083V35.8333Z" fill="#909090"/>
<path d="M35.8333 23.2917C34.8438 23.2917 34.0417 22.4895 34.0417 21.5C34.0417 20.5105 34.8438 19.7083 35.8333 19.7083H41.2083C42.1978 19.7083 43 20.5105 43 21.5C43 22.4895 42.1978 23.2917 41.2083 23.2917H35.8333Z" fill="#909090"/>
<path d="M30.3683 32.9021C29.6686 32.2024 29.6686 31.068 30.3683 30.3683C31.0679 29.6686 32.2024 29.6686 32.9021 30.3683L36.7028 34.169C37.4024 34.8687 37.4024 36.0031 36.7028 36.7028C36.0031 37.4025 34.8686 37.4025 34.1689 36.7028L30.3683 32.9021Z" fill="#909090"/>
<path d="M32.9021 12.6317C32.2024 13.3314 31.068 13.3314 30.3683 12.6317C29.6686 11.932 29.6686 10.7976 30.3683 10.0979L34.169 6.2972C34.8687 5.59751 36.0031 5.59751 36.7028 6.2972C37.4025 6.99688 37.4025 8.13131 36.7028 8.83099L32.9021 12.6317Z" fill="#909090"/>
</svg>
