<svg width="43" height="43" viewBox="0 0 43 43" fill="none" xmlns="http://www.w3.org/2000/svg">
<path d="M19.7087 16.125C19.7087 15.1354 20.5108 14.3333 21.5003 14.3333C22.4898 14.3333 23.292 15.1354 23.292 16.125V29.146C24.3631 29.7656 25.0837 30.9236 25.0837 32.25C25.0837 34.229 23.4793 35.8333 21.5003 35.8333C19.5213 35.8333 17.917 34.229 17.917 32.25C17.917 30.9236 18.6376 29.7656 19.7087 29.146V16.125Z" fill="#909090"/>
<path fill-rule="evenodd" clip-rule="evenodd" d="M14.3337 26.875V8.95829C14.3337 8.57903 14.3798 8.19729 14.442 7.8239C14.5456 7.20265 14.756 6.34694 15.1947 5.46953C15.6369 4.58511 16.3283 3.64619 17.3991 2.93238C18.481 2.21109 19.8431 1.79163 21.5003 1.79163C23.1576 1.79163 24.5197 2.21109 25.6016 2.93238C26.6723 3.64619 27.3638 4.58511 27.806 5.46953C28.2447 6.34694 28.4551 7.20265 28.5586 7.8239C28.6208 8.19679 28.6663 8.57773 28.667 8.95648V26.875C29.1725 27.5489 29.5835 28.2951 29.8842 29.0936C30.5675 30.9087 30.6434 32.8966 30.1003 34.7585C29.5572 36.6204 28.4245 38.2558 26.8724 39.4189C25.3204 40.5819 23.4327 41.2099 21.4932 41.2084C19.5537 41.2068 17.6671 40.5759 16.1169 39.4103C14.5666 38.2448 13.4365 36.6076 12.8964 34.7449C12.3563 32.8821 12.4353 30.8943 13.1215 29.0803C13.4217 28.2867 13.831 27.5451 14.3337 26.875ZM17.917 26.875V8.96924C17.9347 8.32076 18.111 7.6494 18.3997 7.07205C18.6294 6.61272 18.9457 6.20789 19.3867 5.91389C19.8165 5.62737 20.4701 5.37496 21.5003 5.37496C22.5306 5.37496 23.1841 5.62737 23.6139 5.91389C24.0549 6.20789 24.3713 6.61272 24.6009 7.07205C24.8885 7.64719 25.0618 8.31274 25.0833 8.95762L25.0837 26.875C25.0837 27.604 25.2587 28.2625 25.7254 28.841C26.0862 29.2881 26.376 29.7925 26.5811 30.3372C26.9952 31.4372 27.0412 32.6419 26.7121 33.7702C26.3829 34.8986 25.6965 35.8896 24.7559 36.5945C23.8153 37.2993 22.6714 37.6799 21.496 37.679C20.3206 37.678 19.1773 37.2957 18.2378 36.5893C17.2984 35.883 16.6135 34.8908 16.2862 33.762C15.9588 32.6331 16.0067 31.4285 16.4226 30.3291C16.6285 29.7848 16.9192 29.2808 17.2806 28.8343C17.7523 28.2515 17.917 27.6083 17.917 26.875Z" fill="#909090"/>
</svg>
