<svg width="45" height="45" viewBox="0 0 45 45" fill="none" xmlns="http://www.w3.org/2000/svg">
<path d="M14.8439 7.5H21.2753L25.2227 11.25H28.6596L32.607 7.5H39.0385L43.9012 12.1195L41.3184 14.8383L37.5412 11.25H34.1043L30.1569 15H23.7254L19.7781 11.25H16.3411L12.3938 15H5.96227L1.09961 10.3805L3.68242 7.66172L7.45956 11.25H10.8965L14.8439 7.5Z" fill="#909090"/>
<path d="M14.8439 18.75H21.2753L25.2227 22.5H28.6596L32.607 18.75H39.0385L43.9012 23.3695L41.3184 26.0883L37.5412 22.5H34.1043L30.1569 26.25H23.7254L19.7781 22.5H16.3411L12.3938 26.25H5.96227L1.09961 21.6305L3.68242 18.9117L7.45956 22.5H10.8965L14.8439 18.75Z" fill="#909090"/>
<path d="M14.8439 30H21.2753L25.2227 33.75H28.6596L32.607 30H39.0385L43.9012 34.6195L41.3184 37.3383L37.5412 33.75H34.1043L30.1569 37.5H23.7254L19.7781 33.75H16.3411L12.3938 37.5H5.96227L1.09961 32.8805L3.68242 30.1617L7.45956 33.75H10.8965L14.8439 30Z" fill="#909090"/>
</svg>
