<svg width="45" height="45" viewBox="0 0 45 45" fill="none" xmlns="http://www.w3.org/2000/svg">
<path fill-rule="evenodd" clip-rule="evenodd" d="M22.5007 44.958C34.904 44.958 44.959 34.9031 44.959 22.4997C44.959 10.0963 34.904 0.0413472 22.5006 0.0413483C10.0973 0.0413494 0.0423198 10.0963 0.0423209 22.4997C0.042322 34.9031 10.0973 44.958 22.5007 44.958ZM13.7153 23.1184L21.8819 31.2851C22.2236 31.6268 22.7777 31.6268 23.1194 31.2851C23.4611 30.9434 23.4611 30.3893 23.1194 30.0476L16.4464 23.3747L30.6673 23.3747C31.1506 23.3747 31.5423 22.9829 31.5423 22.4997C31.5423 22.0164 31.1506 21.6247 30.6673 21.6247L16.4464 21.6247L23.1194 14.9517C23.4611 14.61 23.4611 14.056 23.1194 13.7143C22.7777 13.3726 22.2236 13.3726 21.8819 13.7143L13.7153 21.881C13.3736 22.2227 13.3736 22.7767 13.7153 23.1184Z" fill="#498553"/>
</svg>
