<svg width="23" height="23" viewBox="0 0 23 23" fill="none" xmlns="http://www.w3.org/2000/svg">
<g clip-path="url(#clip0_348_7658)">
<path fill-rule="evenodd" clip-rule="evenodd" d="M9.58398 16.25H16.2923C16.7986 16.25 17.209 15.8396 17.209 15.3333V7.66667C17.209 7.16041 16.7986 6.75 16.2923 6.75H9.58398V16.25ZM2.87565 4.75C1.26482 4.75 -0.0410156 6.05584 -0.0410156 7.66667V15.3333C-0.0410156 16.9442 1.26482 18.25 2.87565 18.25H16.2923C17.9031 18.25 19.209 16.9442 19.209 15.3333V7.66667C19.209 6.05584 17.9031 4.75 16.2923 4.75H2.87565ZM23.0423 10.5417C23.0423 9.98938 22.5946 9.54167 22.0423 9.54167C21.49 9.54167 21.0423 9.98938 21.0423 10.5417V12.4583C21.0423 13.0106 21.49 13.4583 22.0423 13.4583C22.5946 13.4583 23.0423 13.0106 23.0423 12.4583V10.5417Z" fill="#498553"/>
</g>
<defs>
<clipPath id="clip0_348_7658">
<rect width="23" height="23" fill="white"/>
</clipPath>
</defs>
</svg>
