<svg width="21" height="26" viewBox="0 0 21 26" fill="none" xmlns="http://www.w3.org/2000/svg">
<path d="M19.25 6.5C19.7332 6.5 20.125 6.98503 20.125 7.58333C20.125 8.18164 19.7332 8.66667 19.25 8.66667H1.75C1.26675 8.66667 0.875 8.18164 0.875 7.58333C0.875 6.98502 1.26675 6.5 1.75 6.5L19.25 6.5Z" fill="#888888"/>
<path d="M19.25 11.9167C19.7332 11.9167 20.125 12.4017 20.125 13C20.125 13.5983 19.7332 14.0833 19.25 14.0833H1.75C1.26675 14.0833 0.875 13.5983 0.875 13C0.875 12.4017 1.26675 11.9167 1.75 11.9167H19.25Z" fill="#888888"/>
<path d="M20.125 18.4167C20.125 17.8184 19.7332 17.3333 19.25 17.3333H1.75C1.26675 17.3333 0.875 17.8184 0.875 18.4167C0.875 19.015 1.26675 19.5 1.75 19.5H19.25C19.7332 19.5 20.125 19.015 20.125 18.4167Z" fill="#888888"/>
</svg>
