<svg width="37" height="37" viewBox="0 0 37 37" fill="none" xmlns="http://www.w3.org/2000/svg">
<path d="M13.1035 16.9587C14.3807 16.9587 15.416 15.9233 15.416 14.6462C15.416 13.369 14.3807 12.3337 13.1035 12.3337C11.8264 12.3337 10.791 13.369 10.791 14.6462C10.791 15.9233 11.8264 16.9587 13.1035 16.9587Z" fill="#FF9F9F"/>
<path d="M26.2077 14.6462C26.2077 15.9233 25.1723 16.9587 23.8952 16.9587C22.618 16.9587 21.5827 15.9233 21.5827 14.6462C21.5827 13.369 22.618 12.3337 23.8952 12.3337C25.1723 12.3337 26.2077 13.369 26.2077 14.6462Z" fill="#FF9F9F"/>
<path d="M10.1016 24.5042C10.8497 24.8783 11.7565 24.587 12.1492 23.8547C12.5026 23.2998 13.2657 23.1253 13.8743 23.1253C14.5638 23.1253 14.8278 23.3013 15.3244 23.6324L15.3317 23.6372C15.9866 24.0738 16.8797 24.667 18.4993 24.667C20.119 24.667 21.0121 24.0738 21.667 23.6372L21.6743 23.6324C22.1709 23.3013 22.4349 23.1253 23.1243 23.1253C23.733 23.1253 24.4961 23.2998 24.8494 23.8547C25.2422 24.587 26.149 24.8783 26.8971 24.5042C27.6395 24.1331 27.9564 23.1693 27.5832 22.4291C27.5106 22.2864 27.4309 22.1547 27.2844 21.9594C27.111 21.7282 26.8542 21.437 26.4963 21.1507C25.7609 20.5623 24.6551 20.042 23.1243 20.042C21.5047 20.042 20.6116 20.6351 19.9567 21.0717L19.9494 21.0766C19.4528 21.4077 19.1888 21.5837 18.4993 21.5837C17.8099 21.5837 17.5459 21.4077 17.0493 21.0766L17.042 21.0717C16.3871 20.6351 15.494 20.042 13.8743 20.042C12.3436 20.042 11.2378 20.5623 10.5024 21.1507C10.1445 21.437 9.88769 21.7282 9.71426 21.9594C9.56665 22.1562 9.48644 22.2884 9.41377 22.4326C9.03946 23.1772 9.35606 24.1315 10.1016 24.5042Z" fill="#FF9F9F"/>
<path fill-rule="evenodd" clip-rule="evenodd" d="M18.4993 35.4587C27.8652 35.4587 35.4577 27.8662 35.4577 18.5003C35.4577 9.1345 27.8652 1.54199 18.4993 1.54199C9.13352 1.54199 1.54102 9.1345 1.54102 18.5003C1.54102 27.8662 9.13352 35.4587 18.4993 35.4587ZM18.4993 32.3648C10.8422 32.3648 4.63488 26.1575 4.63488 18.5003C4.63488 10.8432 10.8422 4.63586 18.4993 4.63586C26.1565 4.63586 32.3638 10.8432 32.3638 18.5003C32.3638 26.1575 26.1565 32.3648 18.4993 32.3648Z" fill="#FF9F9F"/>
</svg>
