<svg width="48" height="48" viewBox="0 0 48 48" fill="none" xmlns="http://www.w3.org/2000/svg">
<path d="M13.4101 21.4183C13.7002 21.1377 14.0241 20.8876 14.3594 20.6641C15.0098 20.2305 15.6012 20 16 20C16.3988 20 16.9902 20.2305 17.6406 20.6641C18.1499 21.0036 18.5373 21.3674 18.5862 21.4147C19.369 22.1719 20.6347 22.1938 21.4142 21.4142C22.1953 20.6332 22.1953 19.3668 21.4142 18.5858C20.9445 18.117 20.4105 17.7033 19.8594 17.3359C19.0098 16.7695 17.6012 16 16 16C14.3988 16 12.9902 16.7695 12.1406 17.3359C11.5901 17.7029 11.0569 18.1163 10.5873 18.5843C9.81852 19.3551 9.81226 20.6407 10.5858 21.4142C11.3652 22.1936 12.6286 22.1944 13.4101 21.4183Z" fill="#498553"/>
<path d="M17.7775 27.0828C17.2764 26.1118 16.0862 25.7215 15.106 26.2116C14.1181 26.7056 13.7176 27.9069 14.2116 28.8949C14.3765 29.2236 14.5865 29.5319 14.8067 29.8254C15.1723 30.3129 15.7242 30.9407 16.501 31.5622C18.0801 32.8254 20.5146 34.0004 24.0004 34.0004C27.4863 34.0004 29.9208 32.8254 31.4998 31.5622C32.2767 30.9407 32.8286 30.3129 33.1942 29.8254C33.4152 29.5308 33.6161 29.2227 33.7882 28.897C34.2775 27.922 33.8704 26.6994 32.8949 26.2116C31.9147 25.7215 30.7244 26.1118 30.2234 27.0828C30.1957 27.1327 29.8194 27.784 29.001 28.4387C28.0801 29.1755 26.5146 30.0004 24.0004 30.0004C21.4863 30.0004 19.9208 29.1755 18.9998 28.4387C18.1814 27.784 17.8051 27.1326 17.7775 27.0828Z" fill="#498553"/>
<path fill-rule="evenodd" clip-rule="evenodd" d="M24 46C36.1503 46 46 36.1503 46 24C46 11.8497 36.1503 2 24 2C11.8497 2 2 11.8497 2 24C2 36.1503 11.8497 46 24 46ZM24 41.9863C14.0664 41.9863 6.01366 33.9336 6.01366 24C6.01366 14.0664 14.0664 6.01366 24 6.01366C33.9336 6.01366 41.9863 14.0664 41.9863 24C41.9863 33.9336 33.9336 41.9863 24 41.9863Z" fill="#498553"/>
<path d="M29.4101 21.4183C29.7002 21.1377 30.0241 20.8876 30.3594 20.6641C31.0098 20.2305 31.6012 20 32 20C32.3988 20 32.9902 20.2305 33.6406 20.6641C34.1499 21.0036 34.5373 21.3674 34.5862 21.4147C35.369 22.1719 36.6347 22.1938 37.4142 21.4142C38.1953 20.6332 38.1953 19.3668 37.4142 18.5858C36.9445 18.117 36.4105 17.7033 35.8594 17.3359C35.0098 16.7695 33.6012 16 32 16C30.3988 16 28.9902 16.7695 28.1406 17.3359C27.5901 17.7029 27.0569 18.1163 26.5873 18.5843C25.8185 19.3551 25.8123 20.6407 26.5858 21.4142C27.3652 22.1936 28.6286 22.1944 29.4101 21.4183Z" fill="#498553"/>
</svg>
