<svg width="26" height="26" viewBox="0 0 26 26" fill="none" xmlns="http://www.w3.org/2000/svg">
<path fill-rule="evenodd" clip-rule="evenodd" d="M23.8327 13.0003C23.8327 18.9834 18.9824 23.8337 12.9993 23.8337C7.01626 23.8337 2.16602 18.9834 2.16602 13.0003C2.16602 7.01724 7.01626 2.16699 12.9993 2.16699C18.9824 2.16699 23.8327 7.01724 23.8327 13.0003ZM16.2493 10.8337C16.8477 10.8337 17.3327 10.3486 17.3327 9.75033C17.3327 9.15202 16.8477 8.66699 16.2493 8.66699C15.651 8.66699 15.166 9.15202 15.166 9.75033C15.166 10.3486 15.651 10.8337 16.2493 10.8337ZM10.8327 9.75033C10.8327 10.3486 10.3477 10.8337 9.74935 10.8337C9.15104 10.8337 8.66602 10.3486 8.66602 9.75033C8.66602 9.15202 9.15104 8.66699 9.74935 8.66699C10.3477 8.66699 10.8327 9.15202 10.8327 9.75033ZM8.24204 18.1815C8.70711 18.414 9.27194 18.2284 9.50898 17.7671C9.50862 17.7677 9.50841 17.7681 9.50835 17.7683L9.50873 17.7675L9.51054 17.764L9.51199 17.7612L9.51285 17.7595L9.51332 17.7585C9.51188 17.7614 9.51044 17.7643 9.50898 17.7671C9.50913 17.7668 9.5093 17.7665 9.5095 17.7661C9.512 17.7616 9.51847 17.7501 9.52912 17.7325C9.55049 17.6973 9.58832 17.6386 9.64434 17.5639C9.7567 17.4141 9.93946 17.2038 10.206 16.9905C10.7272 16.5736 11.6046 16.1149 12.9993 16.1149C14.394 16.1149 15.2714 16.5736 15.7926 16.9905C16.0591 17.2038 16.2419 17.4141 16.3542 17.5639C16.4103 17.6386 16.4481 17.6973 16.4695 17.7325C16.4801 17.7501 16.4866 17.7616 16.4891 17.7661C16.4893 17.7665 16.4895 17.7668 16.4896 17.7671C16.7266 18.2284 17.2915 18.414 17.7565 18.1815C18.2248 17.9474 18.4146 17.378 18.1805 16.9097L17.3326 17.3337C18.1805 16.9097 18.1802 16.9092 18.18 16.9087L18.1794 16.9076L18.1783 16.9054L18.1756 16.9002L18.169 16.8874C18.164 16.8778 18.1577 16.8661 18.1502 16.8525C18.1353 16.8253 18.1153 16.7903 18.09 16.7486C18.0394 16.6653 17.9672 16.5548 17.8709 16.4264C17.6786 16.1699 17.3874 15.8385 16.9769 15.5101C16.1438 14.8437 14.8546 14.2191 12.9993 14.2191C11.144 14.2191 9.85476 14.8437 9.02172 15.5101C8.61121 15.8385 8.32001 16.1699 8.12768 16.4264C8.03135 16.5548 7.95916 16.6653 7.90859 16.7486C7.88328 16.7903 7.86329 16.8253 7.84834 16.8525C7.84086 16.8661 7.83463 16.8778 7.8296 16.8874L7.82297 16.9002L7.82032 16.9054L7.81916 16.9076L7.81863 16.9087C7.81837 16.9092 7.81812 16.9097 8.66596 17.3337L7.81812 16.9097C7.58399 17.378 7.77379 17.9474 8.24204 18.1815ZM16.4896 17.7671C16.4904 17.7685 16.4905 17.7687 16.4899 17.7675L16.488 17.764L16.4866 17.7612L16.4857 17.7595L16.4853 17.7586C16.4867 17.7614 16.4882 17.7643 16.4896 17.7671Z" fill="#397142"/>
</svg>
