<svg width="26" height="26" viewBox="0 0 26 26" fill="none" xmlns="http://www.w3.org/2000/svg">
<path fill-rule="evenodd" clip-rule="evenodd" d="M12.9993 2.16699C7.01626 2.16699 2.16602 7.01724 2.16602 13.0003C2.16602 18.9834 7.01626 23.8337 12.9993 23.8337C18.9824 23.8337 23.8327 18.9834 23.8327 13.0003C23.8327 7.01724 18.9824 2.16699 12.9993 2.16699ZM8.24204 14.3194C8.7071 14.0869 9.27194 14.2725 9.50898 14.7338L9.5095 14.7348C9.512 14.7393 9.51847 14.7509 9.52912 14.7684C9.55049 14.8036 9.58832 14.8624 9.64434 14.937C9.7567 15.0869 9.93946 15.2971 10.206 15.5104C10.7272 15.9273 11.6046 16.386 12.9993 16.386C14.394 16.386 15.2714 15.9273 15.7926 15.5104C16.0591 15.2971 16.2419 15.0869 16.3542 14.937C16.4103 14.8624 16.4481 14.8036 16.4695 14.7684C16.4801 14.7509 16.4866 14.7393 16.4891 14.7348L16.4896 14.7338C16.7266 14.2725 17.2915 14.0869 17.7565 14.3194C18.2248 14.5535 18.4146 15.1229 18.1805 15.5912L17.3326 15.1673C18.1805 15.5912 18.1802 15.5917 18.18 15.5922L18.1794 15.5933L18.1783 15.5956L18.1756 15.6008L18.169 15.6136C18.164 15.6231 18.1577 15.6348 18.1502 15.6484C18.1353 15.6756 18.1153 15.7106 18.09 15.7523C18.0394 15.8356 17.9672 15.9461 17.8709 16.0745C17.6786 16.331 17.3874 16.6624 16.9769 16.9908C16.1438 17.6572 14.8546 18.2818 12.9993 18.2818C11.144 18.2818 9.85476 17.6572 9.02172 16.9908C8.61121 16.6624 8.32001 16.331 8.12768 16.0745C8.03135 15.9461 7.95916 15.8356 7.90859 15.7523C7.88328 15.7106 7.86329 15.6756 7.84834 15.6484L7.83596 15.6256L7.8296 15.6136L7.82297 15.6008L7.82032 15.5956L7.81916 15.5933L7.81863 15.5922C7.81837 15.5917 7.81812 15.5912 8.66596 15.1673L7.81812 15.5912C7.58399 15.1229 7.77379 14.5535 8.24204 14.3194ZM17.3327 9.75033C17.3327 10.3486 16.8477 10.8337 16.2493 10.8337C15.651 10.8337 15.166 10.3486 15.166 9.75033C15.166 9.15202 15.651 8.66699 16.2493 8.66699C16.8477 8.66699 17.3327 9.15202 17.3327 9.75033ZM9.74935 10.8337C10.3477 10.8337 10.8327 10.3486 10.8327 9.75033C10.8327 9.15202 10.3477 8.66699 9.74935 8.66699C9.15104 8.66699 8.66602 9.15202 8.66602 9.75033C8.66602 10.3486 9.15104 10.8337 9.74935 10.8337Z" fill="#4EB15F"/>
</svg>
