<svg width="21" height="21" viewBox="0 0 21 21" fill="none" xmlns="http://www.w3.org/2000/svg">
<path d="M11.375 1.75C11.375 1.26675 10.9832 0.875 10.5 0.875C10.0168 0.875 9.625 1.26675 9.625 1.75V2.26256L9.36872 2.00628C9.02701 1.66457 8.47299 1.66457 8.13128 2.00628C7.78957 2.34799 7.78957 2.90201 8.13128 3.24372L9.625 4.73744V8.38756L7.04395 5.80652V3.69418C7.04395 3.21093 6.6522 2.81918 6.16895 2.81918C5.6857 2.81918 5.29395 3.21093 5.29395 3.69418V4.05652L4.93155 3.69412C4.58985 3.35241 4.03583 3.35241 3.69412 3.69412C3.35241 4.03583 3.35241 4.58985 3.69412 4.93155L4.05657 5.29401H3.69408C3.21083 5.29401 2.81908 5.68576 2.81908 6.16901C2.81908 6.65226 3.21083 7.04401 3.69408 7.04401H5.80657L8.38756 9.625H4.73744L3.24372 8.13128C2.90201 7.78957 2.34799 7.78957 2.00628 8.13128C1.66457 8.47299 1.66457 9.02701 2.00628 9.36872L2.26256 9.625H1.75C1.26675 9.625 0.875 10.0168 0.875 10.5C0.875 10.9832 1.26675 11.375 1.75 11.375H2.26256L2.00628 11.6313C1.66457 11.973 1.66457 12.527 2.00628 12.8687C2.34799 13.2104 2.90201 13.2104 3.24372 12.8687L4.73744 11.375H8.38756L5.80657 13.956H3.69408C3.21083 13.956 2.81908 14.3477 2.81908 14.831C2.81908 15.3142 3.21083 15.706 3.69408 15.706H4.05657L3.69408 16.0685C3.35237 16.4102 3.35237 16.9642 3.69408 17.3059C4.03579 17.6476 4.58981 17.6476 4.93151 17.3059L5.29395 16.9435V17.3058C5.29395 17.7891 5.6857 18.1808 6.16895 18.1808C6.6522 18.1808 7.04395 17.7891 7.04395 17.3058V15.1935L9.625 12.6124V16.2626L8.13128 17.7563C7.78957 18.098 7.78957 18.652 8.13128 18.9937C8.47299 19.3354 9.02701 19.3354 9.36872 18.9937L9.625 18.7374V19.25C9.625 19.7332 10.0168 20.125 10.5 20.125C10.9832 20.125 11.375 19.7332 11.375 19.25V18.7374L11.6313 18.9937C11.973 19.3354 12.527 19.3354 12.8687 18.9937C13.2104 18.652 13.2104 18.098 12.8687 17.7563L11.375 16.2626V12.6124L13.956 15.1935V17.3058C13.956 17.7891 14.3478 18.1808 14.831 18.1808C15.3143 18.1808 15.706 17.7891 15.706 17.3058V16.9435L16.0685 17.3059C16.4102 17.6476 16.9642 17.6476 17.3059 17.3059C17.6476 16.9642 17.6476 16.4102 17.3059 16.0685L16.9434 15.706H17.3059C17.7892 15.706 18.1809 15.3142 18.1809 14.831C18.1809 14.3477 17.7892 13.956 17.3059 13.956H15.1934L12.6124 11.375H16.2626L17.7563 12.8687C18.098 13.2104 18.652 13.2104 18.9937 12.8687C19.3354 12.527 19.3354 11.973 18.9937 11.6313L18.7374 11.375H19.25C19.7332 11.375 20.125 10.9832 20.125 10.5C20.125 10.0167 19.7332 9.625 19.25 9.625H18.7374L18.9937 9.36872C19.3354 9.02701 19.3354 8.47299 18.9937 8.13128C18.652 7.78957 18.098 7.78957 17.7563 8.13128L16.2626 9.625H12.6124L15.1934 7.04401H17.3059C17.7892 7.04401 18.1809 6.65226 18.1809 6.16901C18.1809 5.68576 17.7892 5.29401 17.3059 5.29401H16.9434L17.3059 4.93155C17.6476 4.58985 17.6476 4.03583 17.3059 3.69412C16.9642 3.35241 16.4102 3.35241 16.0684 3.69412L15.706 4.05652V3.69418C15.706 3.21093 15.3143 2.81918 14.831 2.81918C14.3478 2.81918 13.956 3.21093 13.956 3.69418V5.80652L11.375 8.38756V4.73744L12.8687 3.24372C13.2104 2.90201 13.2104 2.34799 12.8687 2.00628C12.527 1.66457 11.973 1.66457 11.6313 2.00628L11.375 2.26256V1.75Z" fill="#FF9F9F"/>
</svg>
