<svg width="22" height="21" viewBox="0 0 22 21" fill="none" xmlns="http://www.w3.org/2000/svg">
<path d="M8.89312 5.50996C8.53514 5.85167 7.95474 5.85167 7.59676 5.50996C7.23878 5.16825 7.23878 4.61423 7.59676 4.27252L9.70243 2.26256C10.4184 1.57915 11.5792 1.57915 12.2952 2.26256L14.4019 4.27356C14.7599 4.61527 14.7599 5.16929 14.4019 5.511C14.0439 5.85271 13.4635 5.85271 13.1056 5.511L11.9167 4.37615V7.87479C11.9167 8.35804 11.5063 8.74979 11 8.74979C10.4937 8.74979 10.0833 8.35804 10.0833 7.87479V4.37385L8.89312 5.50996Z" fill="#498553"/>
<path fill-rule="evenodd" clip-rule="evenodd" d="M15.5796 14.9542C15.582 14.9312 15.5833 14.9078 15.5833 14.884C15.5841 14.533 15.5406 14.1821 15.453 13.839C15.2928 13.2115 14.989 12.6255 14.5635 12.1233C14.1379 11.6211 13.6011 11.2151 12.9917 10.9344C12.3822 10.6538 11.7152 10.5054 11.0385 10.4999C10.3619 10.4945 9.69236 10.6322 9.07805 10.903C8.46373 11.1739 7.91987 11.5712 7.48551 12.0665C7.05116 12.5618 6.73708 13.1428 6.56585 13.7677C6.47223 14.1093 6.42257 14.4594 6.41716 14.8104C6.41701 14.8206 6.41707 14.8307 6.41735 14.8407C6.4169 14.852 6.41667 14.8634 6.41667 14.8748C6.41667 15.358 6.82707 15.7498 7.33333 15.7498H14.6667C15.1449 15.7498 15.5376 15.4002 15.5796 14.9542ZM8.41256 13.9998H13.5874C13.4836 13.7201 13.3306 13.4586 13.1342 13.2269C12.8793 12.9261 12.5578 12.683 12.1928 12.5149C11.8278 12.3468 11.4283 12.2579 11.0231 12.2546C10.6178 12.2514 10.2168 12.3338 9.84892 12.496C9.481 12.6583 9.15527 12.8962 8.89513 13.1929C8.6848 13.4327 8.52156 13.7061 8.41256 13.9998Z" fill="#498553"/>
<path d="M0 14.8748C0 15.358 0.410406 15.7498 0.916667 15.7498H3.66667C4.17293 15.7498 4.58333 15.358 4.58333 14.8748C4.58333 14.3915 4.17293 13.9998 3.66667 13.9998H0.916667C0.410406 13.9998 0 14.3915 0 14.8748Z" fill="#498553"/>
<path d="M3.22183 7.45004C2.86385 7.79175 2.86385 8.34577 3.22183 8.68747L5.16637 10.5436C5.52435 10.8853 6.10476 10.8853 6.46274 10.5436C6.82072 10.2019 6.82072 9.6479 6.46274 9.30619L4.51819 7.45004C4.16021 7.10833 3.57981 7.10833 3.22183 7.45004Z" fill="#498553"/>
<path d="M17.4167 14.8748C17.4167 15.358 17.8271 15.7498 18.3333 15.7498H21.0833C21.5896 15.7498 22 15.358 22 14.8748C22 14.3915 21.5896 13.9998 21.0833 13.9998H18.3333C17.8271 13.9998 17.4167 14.3915 17.4167 14.8748Z" fill="#498553"/>
<path d="M15.5373 10.5437C15.8953 10.8854 16.4757 10.8854 16.8336 10.5437L18.7782 8.68757C19.1362 8.34586 19.1362 7.79184 18.7782 7.45013C18.4202 7.10843 17.8398 7.10843 17.4818 7.45013L15.5373 9.30629C15.1793 9.648 15.1793 10.202 15.5373 10.5437Z" fill="#498553"/>
<path d="M0.916667 17.4998C0.410406 17.4998 0 17.8915 0 18.3748C0 18.858 0.410406 19.2498 0.916667 19.2498H21.0833C21.5896 19.2498 22 18.858 22 18.3748C22 17.8915 21.5896 17.4998 21.0833 17.4998H0.916667Z" fill="#498553"/>
</svg>
