<svg width="38" height="39" viewBox="0 0 38 39" fill="none" xmlns="http://www.w3.org/2000/svg">
<path d="M12.9366 1.82845C12.6532 0.921557 13.3307 0 14.2809 0C14.8921 0 15.4336 0.394272 15.6212 0.975996L21.0922 17.9358C21.1562 18.1342 21.1887 18.3414 21.1887 18.5498V37.0847C21.1887 38.045 20.4103 38.8234 19.45 38.8234C18.4697 38.8234 17.6832 38.0134 17.712 37.0335L18.2377 19.1587C18.2442 18.9368 18.2138 18.7153 18.1475 18.5034L12.9366 1.82845Z" fill="#F8F8F8"/>
<path d="M29.509 14.0788C29.6017 14.0135 29.7047 13.9644 29.8138 13.9336L35.5623 12.3122C36.3177 12.0992 37.0128 12.7995 36.7942 13.5533L35.0948 19.4115C35.0345 19.6194 34.9084 19.802 34.7355 19.9321L31.3462 22.4813C31.2356 22.5645 31.1088 22.6239 30.974 22.6556L24.1495 24.2596C23.3128 24.4563 22.6342 23.5755 23.0378 22.8166L26.4783 16.3473C26.5518 16.209 26.6569 16.0899 26.7849 15.9996L29.509 14.0788Z" fill="#F8F8F8"/>
<path d="M4.19471 11.1103C4.10764 11.0377 4.03354 10.9508 3.97558 10.8534L0.921645 5.72046C0.520355 5.04598 1.01691 4.19325 1.80157 4.20936L7.90003 4.33461C8.11639 4.33905 8.32546 4.41356 8.49587 4.54694L11.8354 7.16092C11.9444 7.24629 12.0346 7.35338 12.1001 7.47541L15.4158 13.6521C15.8223 14.4095 15.1471 15.2929 14.3096 15.0995L7.17037 13.4506C7.01772 13.4153 6.87549 13.3447 6.75515 13.2444L4.19471 11.1103Z" fill="#F8F8F8"/>
</svg>
