<svg width="30" height="30" viewBox="0 0 30 30" fill="none" xmlns="http://www.w3.org/2000/svg">
<path fill-rule="evenodd" clip-rule="evenodd" d="M21.001 2.50098C21.001 1.94869 20.5533 1.50098 20.001 1.50098C19.4487 1.50098 19.001 1.94869 19.001 2.50098V5.00098H11.001V2.50098C11.001 1.94869 10.5533 1.50098 10.001 1.50098C9.44869 1.50098 9.00098 1.94869 9.00098 2.50098V5.00098H5.27875C3.74463 5.00098 2.50098 6.12026 2.50098 7.50098V12.501H2.75098V25.001C2.75098 26.934 4.31798 28.501 6.25098 28.501H23.751C25.684 28.501 27.251 26.934 27.251 25.001V12.501H27.501V7.50098C27.501 6.12026 26.2573 5.00098 24.7232 5.00098H21.001V2.50098ZM25.251 12.501H4.75098V25.001C4.75098 25.8294 5.42255 26.501 6.25098 26.501H23.751C24.5794 26.501 25.251 25.8294 25.251 25.001V12.501ZM9.00098 5.00098H11.001V7.50098C11.001 8.05326 10.5533 8.50098 10.001 8.50098C9.44869 8.50098 9.00098 8.05326 9.00098 7.50098V5.00098ZM21.001 5.00098V7.50098C21.001 8.05326 20.5533 8.50098 20.001 8.50098C19.4487 8.50098 19.001 8.05326 19.001 7.50098V5.00098H21.001Z" fill="#D7EADD"/>
</svg>
