<svg width="14" height="14" viewBox="0 0 14 14" fill="none" xmlns="http://www.w3.org/2000/svg">
<path d="M13.0501 3.31064C13.6296 2.73115 13.6296 1.79161 13.0501 1.21212C12.4706 0.632629 11.5311 0.632628 10.9516 1.21212L7.48441 4.67927C7.28915 4.87453 6.97257 4.87453 6.77731 4.67927L3.31016 1.21212C2.73066 0.632627 1.79112 0.632629 1.21163 1.21212C0.632141 1.79161 0.63214 2.73115 1.21163 3.31065L4.67878 6.77779C4.87404 6.97306 4.87404 7.28964 4.67878 7.4849L1.21163 10.9521C0.632139 11.5315 0.63214 12.4711 1.21163 13.0506C1.79112 13.6301 2.73067 13.6301 3.31016 13.0506L6.77731 9.58343C6.97257 9.38816 7.28915 9.38816 7.48441 9.58343L10.9516 13.0506C11.5311 13.6301 12.4706 13.6301 13.0501 13.0506C13.6296 12.4711 13.6296 11.5315 13.0501 10.952L9.58294 7.4849C9.38768 7.28964 9.38768 6.97306 9.58294 6.77779L13.0501 3.31064Z" fill="#D7EADD" stroke="#D7EADD" stroke-linecap="round"/>
</svg>
