<svg width="22" height="22" viewBox="0 0 22 22" fill="none" xmlns="http://www.w3.org/2000/svg">
<path fill-rule="evenodd" clip-rule="evenodd" d="M9.19341 1.02474C8.88987 1.18706 8.74059 1.48147 8.70864 1.81446C8.69488 1.97555 8.67421 2.13549 8.64612 2.29478C8.58647 2.63289 8.47348 3.11068 8.26175 3.65099C7.8394 4.72878 7.03174 6.03994 5.47307 7.01407C3.27649 8.38688 2.46171 11.4715 2.80988 14.2329C3.16535 17.0522 4.77535 19.9742 7.9608 21.036C8.2782 21.1418 8.62803 21.0663 8.87351 20.839C9.17386 20.5609 9.18917 20.1923 9.11284 19.8202C9.05683 19.5471 8.93819 18.8634 8.93819 18.0466C8.9382 17.7824 8.95041 17.5113 8.97866 17.2394C9.46826 18.3616 10.1319 19.1799 10.7952 19.7652C11.7818 20.6358 12.7143 20.9524 12.9919 21.0342C13.2026 21.0963 13.4264 21.1 13.6327 21.0175C16.0683 20.0433 17.6018 18.721 18.4583 17.2095C19.313 15.7012 19.4333 14.1109 19.2422 12.7092C19.052 11.3148 18.5498 10.0692 18.1082 9.18615C17.7743 8.51829 17.4664 8.03978 17.3249 7.83034C17.1516 7.57367 16.9258 7.37552 16.6041 7.33895C16.3478 7.3098 16.0911 7.39001 15.8969 7.5599L14.4623 8.81524C14.5855 6.82421 13.8851 5.15141 13.0157 3.89078C12.3844 2.97537 11.6641 2.27232 11.1062 1.79969C10.826 1.56223 10.583 1.37982 10.4071 1.25492C10.3191 1.19239 10.2476 1.14407 10.1962 1.11025C9.89224 0.909954 9.52767 0.845984 9.19341 1.02474ZM7.11766 18.5678C7.10956 18.4013 7.10486 18.227 7.10486 18.0466C7.10487 17.0816 7.23941 15.8635 7.77222 14.7314C7.95069 14.3522 8.17384 13.9826 8.45158 13.6354C8.68527 13.3433 9.07303 13.2225 9.43129 13.3302C9.78955 13.4379 10.0464 13.7525 10.0803 14.1251C10.2876 16.406 11.2047 17.6816 12.0082 18.3905C12.4187 18.7528 12.8148 18.9799 13.1017 19.1146C14.209 19.2497 16.3952 17.1315 16.8633 16.3056C17.4695 15.2358 17.5783 14.0761 17.4257 12.9569C17.2474 11.6499 16.7119 10.4404 16.2858 9.65571L13.4377 12.1479C13.112 12.4329 12.6315 12.4513 12.285 12.1921C11.9385 11.933 11.8204 11.4668 12.0017 11.0739C13.2082 8.46001 12.5178 6.398 11.5065 4.93163C11.1051 4.34956 10.6532 3.8649 10.2491 3.48949C10.1756 3.74712 10.0837 4.02636 9.9687 4.31989C9.80537 4.73671 9.59469 5.18382 9.32354 5.639C8.71638 6.65826 7.80596 7.718 6.4447 8.56875C5.11343 9.40077 4.32412 11.587 4.62881 14.0036C4.85852 15.8254 5.68625 17.5305 7.11766 18.5678Z" fill="#498553"/>
</svg>
