<svg width="22" height="22" viewBox="0 0 22 22" fill="none" xmlns="http://www.w3.org/2000/svg">
<path d="M21.5 11.25V10.75C21.5 9.92157 20.8284 9.25 20 9.25H13.25C12.9739 9.25 12.75 9.02614 12.75 8.75V2C12.75 1.17157 12.0784 0.5 11.25 0.5H10.75C9.92157 0.5 9.25 1.17157 9.25 2V8.75C9.25 9.02614 9.02614 9.25 8.75 9.25H2C1.17157 9.25 0.5 9.92157 0.5 10.75V11.25C0.5 12.0784 1.17157 12.75 2 12.75H8.75C9.02614 12.75 9.25 12.9739 9.25 13.25V20C9.25 20.8284 9.92157 21.5 10.75 21.5H11.25C12.0784 21.5 12.75 20.8284 12.75 20V13.25C12.75 12.9739 12.9739 12.75 13.25 12.75H20C20.8284 12.75 21.5 12.0784 21.5 11.25Z" fill="#D7EADD" stroke="#D7EADD" stroke-linecap="round"/>
</svg>
