<svg width="34" height="34" viewBox="0 0 34 34" fill="none" xmlns="http://www.w3.org/2000/svg">
<path d="M18.917 6.66651C18.917 5.83808 18.2454 5.1665 17.417 5.1665H16.5837C15.7552 5.1665 15.0837 5.83808 15.0837 6.6665V14.5832C15.0837 14.8593 14.8598 15.0832 14.5837 15.0832H6.66699C5.83857 15.0832 5.16699 15.7547 5.16699 16.5832V17.4165C5.16699 18.2449 5.83857 18.9165 6.66699 18.9165H14.5837C14.8598 18.9165 15.0837 19.1404 15.0837 19.4165V27.3332C15.0837 28.1616 15.7552 28.8332 16.5837 28.8332H17.417C18.2454 28.8332 18.917 28.1616 18.917 27.3332V19.4165C18.917 19.1404 19.1409 18.9165 19.417 18.9165H27.3337C28.1621 18.9165 28.8337 18.2449 28.8337 17.4165V16.5832C28.8337 15.7547 28.1621 15.0832 27.3337 15.0832H19.417C19.1409 15.0832 18.917 14.8593 18.917 14.5832V6.66651Z" fill="#498553" stroke="#498553" stroke-linecap="round"/>
</svg>
