<svg width="16" height="19" viewBox="0 0 16 19" fill="none" xmlns="http://www.w3.org/2000/svg">
<g filter="url(#filter0_b_1264_1909)">
<path d="M5.12342 5.80459C5.38377 5.49542 5.38377 4.99416 5.12342 4.685C4.86307 4.37583 4.44096 4.37583 4.18061 4.685L1.07021 8.3786C0.549513 8.99693 0.549513 9.99944 1.07021 10.6178L4.1825 14.3136C4.44285 14.6228 4.86496 14.6228 5.12531 14.3136C5.38566 14.0044 5.38566 13.5032 5.12531 13.194L2.68129 10.2917L14.6669 10.2917C15.0351 10.2917 15.3336 9.9373 15.3336 9.50007C15.3336 9.06285 15.0351 8.7084 14.6669 8.7084L2.6781 8.70841L5.12342 5.80459Z" fill="#F6F6F6"/>
</g>
<defs>
<filter id="filter0_b_1264_1909" x="-6.32031" y="-2.54688" width="28.6543" height="24.0928" filterUnits="userSpaceOnUse" color-interpolation-filters="sRGB">
<feFlood flood-opacity="0" result="BackgroundImageFix"/>
<feGaussianBlur in="BackgroundImageFix" stdDeviation="3.5"/>
<feComposite in2="SourceAlpha" operator="in" result="effect1_backgroundBlur_1264_1909"/>
<feBlend mode="normal" in="SourceGraphic" in2="effect1_backgroundBlur_1264_1909" result="shape"/>
</filter>
</defs>
</svg>
