<svg width="29" height="29" viewBox="0 0 29 29" fill="none" xmlns="http://www.w3.org/2000/svg">
<path d="M9.67198 11.3799C9.2001 10.9081 9.2001 10.143 9.67198 9.67111C10.1439 9.19922 10.9089 9.19922 11.3808 9.67111L14.5076 12.7978L17.6311 9.67428C18.103 9.2024 18.8681 9.2024 19.34 9.67428C19.8118 10.1462 19.8118 10.9112 19.34 11.3831L16.2164 14.5067L19.3386 17.6289C19.8105 18.1008 19.8105 18.8659 19.3386 19.3378C18.8668 19.8097 18.1017 19.8097 17.6298 19.3378L14.5076 16.2155L11.3843 19.3388C10.9124 19.8106 10.1474 19.8106 9.67549 19.3388C9.2036 18.8669 9.2036 18.1018 9.67549 17.6299L12.7987 14.5067L9.67198 11.3799Z" fill="#858585"/>
<path fill-rule="evenodd" clip-rule="evenodd" d="M27.7923 14.4997C27.7923 21.8405 21.8414 27.7913 14.5007 27.7913C7.15987 27.7913 1.20898 21.8405 1.20898 14.4997C1.20898 7.15889 7.15987 1.20801 14.5007 1.20801C21.8414 1.20801 27.7923 7.15889 27.7923 14.4997ZM3.6339 14.4997C3.6339 20.5012 8.49911 25.3664 14.5007 25.3664C20.5022 25.3664 25.3674 20.5012 25.3674 14.4997C25.3674 8.49813 20.5022 3.63293 14.5007 3.63293C8.49911 3.63293 3.6339 8.49813 3.6339 14.4997Z" fill="#858585"/>
</svg>
