<svg width="22" height="21" viewBox="0 0 22 21" fill="none" xmlns="http://www.w3.org/2000/svg">
<path fill-rule="evenodd" clip-rule="evenodd" d="M5.50059 0.875C5.18235 0.875003 4.91709 1.03229 4.73204 1.2703C4.6671 1.35433 4.51682 1.55098 4.31724 1.82617C4.05178 2.19218 3.69643 2.70086 3.33958 3.26857C2.98445 3.83358 2.61806 4.47247 2.33778 5.09673C2.06939 5.69452 1.833 6.3437 1.83399 7.0018C1.83455 7.18649 1.85766 7.3721 1.8894 7.55397C1.94237 7.85738 2.05001 8.27529 2.27445 8.70379C2.50069 9.13573 2.85445 9.59428 3.40226 9.94289C3.95581 10.2951 4.65268 10.5 5.5006 10.5C6.34851 10.5 7.04539 10.2951 7.59894 9.94289C8.14676 9.59429 8.50053 9.13575 8.72678 8.70382C8.95124 8.27532 9.0589 7.85741 9.11188 7.55401C9.14367 7.37192 9.16706 7.18584 9.16732 7.00089C9.16764 6.34277 8.93194 5.6946 8.6635 5.09672C8.38321 4.47245 8.01681 3.83356 7.66166 3.26856C7.3048 2.70084 6.94943 2.19216 6.68396 1.82615C6.48438 1.55097 6.33408 1.35431 6.26914 1.27028C6.08409 1.03228 5.81883 0.874997 5.50059 0.875ZM6.97841 5.78609C6.74306 5.26192 6.42196 4.69769 6.08959 4.16894C5.88747 3.84738 5.68479 3.54464 5.50061 3.27907C5.31645 3.54463 5.11378 3.84738 4.91166 4.16893C4.57932 4.69767 4.25822 5.26191 4.02288 5.78608L4.00956 5.81575C3.84758 6.17619 3.6561 6.60229 3.66748 7.00036C3.67847 7.31529 3.76714 7.64033 3.91425 7.92121C4.03175 8.14552 4.1936 8.34322 4.41922 8.4868C4.6391 8.62673 4.97348 8.75 5.5006 8.75C6.02771 8.75 6.36211 8.62673 6.582 8.4868C6.80764 8.34321 6.9695 8.1455 7.08701 7.92118C7.23413 7.64031 7.32283 7.31526 7.33382 7.00033C7.34522 6.60232 7.15374 6.17624 6.99178 5.81585L6.97841 5.78609Z" fill="#498553"/>
<path fill-rule="evenodd" clip-rule="evenodd" d="M16.5006 0.875C16.1823 0.875003 15.9171 1.03229 15.732 1.2703C15.6671 1.35433 15.5168 1.55098 15.3172 1.82617C15.0518 2.19218 14.6964 2.70086 14.3396 3.26857C13.9844 3.83358 13.6181 4.47247 13.3378 5.09673C13.0694 5.69452 12.833 6.3437 12.834 7.0018C12.8346 7.18649 12.8577 7.3721 12.8894 7.55397C12.9424 7.85738 13.05 8.27529 13.2745 8.70379C13.5007 9.13573 13.8544 9.59428 14.4023 9.94289C14.9558 10.2951 15.6527 10.5 16.5006 10.5C17.3485 10.5 18.0454 10.2951 18.5989 9.94289C19.1468 9.59429 19.5005 9.13575 19.7268 8.70382C19.9512 8.27532 20.0589 7.85741 20.1119 7.55401C20.1437 7.37192 20.1671 7.18584 20.1673 7.00089C20.1676 6.34277 19.9319 5.6946 19.6635 5.09672C19.3832 4.47245 19.0168 3.83356 18.6617 3.26856C18.3048 2.70084 17.9494 2.19216 17.684 1.82615C17.4844 1.55097 17.3341 1.35431 17.2691 1.27028C17.0841 1.03228 16.8188 0.874997 16.5006 0.875ZM17.9784 5.78609C17.7431 5.26192 17.422 4.69769 17.0896 4.16894C16.8875 3.84738 16.6848 3.54464 16.5006 3.27907C16.3164 3.54463 16.1138 3.84738 15.9117 4.16893C15.5793 4.69767 15.2582 5.26191 15.0229 5.78608L15.0096 5.81574C14.8476 6.17619 14.6561 6.60229 14.6675 7.00036C14.6785 7.31529 14.7671 7.64033 14.9143 7.92121C15.0317 8.14552 15.1936 8.34322 15.4192 8.4868C15.6391 8.62673 15.9735 8.75 16.5006 8.75C17.0277 8.75 17.3621 8.62673 17.582 8.4868C17.8076 8.34321 17.9695 8.1455 18.087 7.92118C18.2341 7.64031 18.3228 7.31526 18.3338 7.00033C18.3452 6.60233 18.1537 6.17626 17.9918 5.81587L17.9784 5.78609Z" fill="#498553"/>
<path fill-rule="evenodd" clip-rule="evenodd" d="M10.232 10.8953C10.4171 10.6573 10.6823 10.5 11.0006 10.5C11.3188 10.5 11.5841 10.6573 11.7691 10.8953C11.8341 10.9793 11.9844 11.176 12.184 11.4512C12.4494 11.8172 12.8048 12.3258 13.1617 12.8936C13.5168 13.4586 13.8832 14.0975 14.1635 14.7217C14.4319 15.3196 14.6676 15.9678 14.6673 16.6259C14.6671 16.8108 14.6437 16.9969 14.6119 17.179C14.5589 17.4824 14.4512 17.9003 14.2268 18.3288C14.0005 18.7607 13.6468 19.2193 13.0989 19.5679C12.5454 19.9201 11.8485 20.125 11.0006 20.125C10.1527 20.125 9.45581 19.9201 8.90226 19.5679C8.35445 19.2193 8.00069 18.7607 7.77445 18.3288C7.55001 17.9003 7.44237 17.4824 7.3894 17.179C7.35766 16.9971 7.33455 16.8115 7.33399 16.6268C7.333 15.9687 7.56939 15.3195 7.83778 14.7217C8.11806 14.0975 8.48445 13.4586 8.83958 12.8936C9.19643 12.3259 9.55178 11.8172 9.81724 11.4512C10.0168 11.176 10.1671 10.9793 10.232 10.8953ZM11.5896 13.7939C11.922 14.3227 12.2431 14.8869 12.4784 15.4111C12.4828 15.421 12.4873 15.4309 12.4918 15.4409C12.6537 15.8012 12.8452 16.2273 12.8338 16.6253C12.8228 16.9403 12.7341 17.2653 12.587 17.5462C12.4695 17.7705 12.3076 17.9682 12.082 18.1118C11.8621 18.2517 11.5277 18.375 11.0006 18.375C10.4735 18.375 10.1391 18.2517 9.91922 18.1118C9.69359 17.9682 9.53175 17.7705 9.41426 17.5462C9.26714 17.2653 9.17847 16.9403 9.16748 16.6254C9.1561 16.2273 9.34758 15.8012 9.50956 15.4407C9.51402 15.4308 9.51847 15.4209 9.52288 15.4111C9.75822 14.8869 10.0793 14.3227 10.4117 13.7939C10.6138 13.4724 10.8164 13.1696 11.0006 12.9041C11.1848 13.1696 11.3875 13.4724 11.5896 13.7939Z" fill="#498553"/>
</svg>
