<svg width="29" height="29" viewBox="0 0 29 29" fill="none" xmlns="http://www.w3.org/2000/svg">
<path d="M27.7923 14.4997C27.7923 21.8405 21.8414 27.7913 14.5007 27.7913C7.15987 27.7913 1.20898 21.8405 1.20898 14.4997C1.20898 7.15889 7.15987 1.20801 14.5007 1.20801C21.8414 1.20801 27.7923 7.15889 27.7923 14.4997ZM3.6339 14.4997C3.6339 20.5012 8.49911 25.3664 14.5007 25.3664C20.5022 25.3664 25.3674 20.5012 25.3674 14.4997C25.3674 8.49814 20.5022 3.63293 14.5007 3.63293C8.49911 3.63293 3.6339 8.49814 3.6339 14.4997Z" fill="#858585"/>
<path d="M16.3132 21.7497C16.3132 22.7507 15.5017 23.5622 14.5007 23.5622C13.4996 23.5622 12.6882 22.7507 12.6882 21.7497C12.6882 20.7487 13.4996 19.9372 14.5007 19.9372C15.5017 19.9372 16.3132 20.7487 16.3132 21.7497Z" fill="#858585"/>
<path d="M13.2923 14.4997V16.9163C13.2923 16.9163 13.2923 18.1247 14.5006 18.1247C15.709 18.1247 15.709 16.9163 15.709 16.9163V14.4997C15.709 14.4997 16.288 14.334 16.51 14.2439C16.51 14.2439 16.9136 14.0998 17.1961 13.883C17.4787 13.6661 17.7343 13.4086 17.963 13.1104C18.2051 12.8123 18.3935 12.4666 18.528 12.0736C18.6625 11.6806 18.7298 11.3626 18.7298 10.8747C18.7298 10.0615 18.5482 9.22741 18.185 8.61751C17.8352 7.99406 17.3374 7.51292 16.6916 7.17409C16.0459 6.8217 15.2925 6.64551 14.4315 6.64551C13.8933 6.64551 13.4157 6.71327 12.9987 6.84881C12.5816 6.97079 12.2116 7.1402 11.8888 7.35706C11.5793 7.56036 11.317 7.79076 11.1017 8.04827C10.8999 8.29223 10.7385 8.52942 10.6174 8.75982C10.4963 8.99023 10.4156 9.19353 10.3753 9.36972C10.2945 9.62723 10.2609 9.83731 10.2744 9.99995C10.3013 10.1626 10.382 10.2981 10.5165 10.4065C10.6511 10.515 10.8596 10.6302 11.1421 10.7522C11.4381 10.847 11.6668 10.8809 11.8282 10.8538C12.0031 10.8267 12.1444 10.7454 12.252 10.6098C12.252 10.6098 12.8257 9.79405 12.9871 9.63141C13.162 9.45522 13.3773 9.31969 13.6329 9.22482C13.8885 9.11639 14.1778 9.06218 14.5006 9.06218C15.2002 9.06218 15.7182 9.23159 16.0545 9.57042C16.4043 9.8957 16.51 10.1694 16.51 10.7928C16.51 11.213 16.436 11.5518 16.288 11.8093C16.14 12.0668 15.945 12.2769 15.7028 12.4395C15.7028 12.4395 15.3739 12.5652 15.1048 12.6872C14.8492 12.7956 14.38 12.9749 14.1378 13.1104C13.9091 13.2324 13.7809 13.3606 13.6329 13.5504C13.4849 13.7401 13.2923 14.1744 13.2923 14.4997Z" fill="#858585"/>
</svg>
