<svg width="17" height="16" viewBox="0 0 17 16" fill="none" xmlns="http://www.w3.org/2000/svg">
<path fill-rule="evenodd" clip-rule="evenodd" d="M12.3939 10.6359C13.3461 9.51562 13.9154 8.09461 13.9154 6.54844C13.9154 2.93184 10.8004 0 6.95772 0C3.11508 0 0 2.93184 0 6.54844C0 10.165 3.11508 13.0969 6.95772 13.0969C8.60052 13.0969 10.1103 12.561 11.3006 11.6649L15.6803 15.7869C15.9822 16.071 16.4717 16.071 16.7736 15.7869C17.0755 15.5027 17.0755 15.042 16.7736 14.7579L12.3939 10.6359ZM6.95772 11.649C3.96471 11.649 1.5384 9.36539 1.5384 6.54844C1.5384 3.73149 3.96471 1.44791 6.95772 1.44791C9.95072 1.44791 12.377 3.73149 12.377 6.54844C12.377 9.36539 9.95072 11.649 6.95772 11.649Z" fill="#888888"/>
</svg>
