<svg width="29" height="29" viewBox="0 0 29 29" fill="none" xmlns="http://www.w3.org/2000/svg">
<path d="M13.2923 9.66634C13.2923 8.999 13.8333 8.45801 14.5007 8.45801C15.168 8.45801 15.709 8.999 15.709 9.66634V13.2913H19.334C20.0013 13.2913 20.5423 13.8323 20.5423 14.4997C20.5423 15.167 20.0013 15.708 19.334 15.708H15.709V19.333C15.709 20.0004 15.168 20.5413 14.5007 20.5413C13.8333 20.5413 13.2923 20.0004 13.2923 19.333V15.708H9.66732C8.99997 15.708 8.45898 15.167 8.45898 14.4997C8.45898 13.8323 8.99997 13.2913 9.66732 13.2913H13.2923V9.66634Z" fill="#858585"/>
<path fill-rule="evenodd" clip-rule="evenodd" d="M27.7923 4.83301C27.7923 2.83098 26.1693 1.20801 24.1673 1.20801H4.83398C2.83195 1.20801 1.20898 2.83098 1.20898 4.83301V24.1663C1.20898 26.1684 2.83195 27.7913 4.83398 27.7913H24.1673C26.1693 27.7913 27.7923 26.1684 27.7923 24.1663V4.83301ZM25.3756 4.83301C25.3756 4.16566 24.8347 3.62467 24.1673 3.62467H4.83398C4.16664 3.62467 3.62565 4.16566 3.62565 4.83301V24.1663C3.62565 24.8337 4.16664 25.3747 4.83398 25.3747H24.1673C24.8347 25.3747 25.3756 24.8337 25.3756 24.1663V4.83301Z" fill="#858585"/>
</svg>
