<svg width="31" height="32" viewBox="0 0 31 32" fill="none" xmlns="http://www.w3.org/2000/svg">
<path fill-rule="evenodd" clip-rule="evenodd" d="M23.1126 4C22.3911 4 21.6991 4.29588 21.1889 4.82256L5.25221 21.2733C5.19016 21.3373 5.14637 21.4168 5.12538 21.5035L4.07113 25.8566C3.98227 26.2235 4.31649 26.5527 4.68202 26.4584L8.86872 25.3779C8.95783 25.3549 9.03887 25.3078 9.1029 25.2417L25.0364 8.79421C25.289 8.53343 25.4894 8.22384 25.6262 7.88311C25.7629 7.54238 25.8333 7.17719 25.8333 6.80838C25.8333 6.43958 25.7629 6.07439 25.6262 5.73366C25.4894 5.39293 25.289 5.08334 25.0364 4.82256C24.7838 4.56177 24.4839 4.35491 24.1538 4.21378C23.8237 4.07264 23.4699 4 23.1126 4ZM15.4999 25.6667C14.9476 25.6667 14.4999 26.1144 14.4999 26.6667C14.4999 27.219 14.9476 27.6667 15.4999 27.6667H27.1249C27.6772 27.6667 28.1249 27.219 28.1249 26.6667C28.1249 26.1144 27.6772 25.6667 27.1249 25.6667H15.4999Z" fill="#ACACAC"/>
</svg>
