<svg width="88" height="88" viewBox="0 0 88 88" fill="none" xmlns="http://www.w3.org/2000/svg">
<path d="M36.667 34.8333C36.667 37.8709 34.2046 40.3333 31.167 40.3333C28.1294 40.3333 25.667 37.8709 25.667 34.8333C25.667 31.7957 28.1294 29.3333 31.167 29.3333C34.2046 29.3333 36.667 31.7957 36.667 34.8333Z" fill="#717171"/>
<path d="M56.8337 40.3333C59.8712 40.3333 62.3337 37.8709 62.3337 34.8333C62.3337 31.7957 59.8712 29.3333 56.8337 29.3333C53.7961 29.3333 51.3337 31.7957 51.3337 34.8333C51.3337 37.8709 53.7961 40.3333 56.8337 40.3333Z" fill="#717171"/>
<path fill-rule="evenodd" clip-rule="evenodd" d="M36.7075 47.6666H51.2933C51.3233 47.6663 51.3531 47.6663 51.3829 47.6666H58.6636C60.6887 47.6666 62.3337 49.3083 62.3337 51.3333C62.3337 53.3583 60.692 55 58.667 55H55.1501C55.149 56.7205 55.0577 58.8632 54.7306 61.0439C54.3559 63.5419 53.6235 66.4375 52.0877 68.8003C50.4449 71.3277 47.7864 73.3333 44.0004 73.3333C40.2143 73.3333 37.5559 71.3277 35.9131 68.8003C34.3772 66.4375 33.6448 63.5419 33.2701 61.0439C32.943 58.8632 32.8518 56.7205 32.8507 55H29.3371C27.312 55 25.667 53.3583 25.667 51.3333C25.667 49.3083 27.3086 47.6666 29.3337 47.6666H36.6178C36.6476 47.6663 36.6775 47.6663 36.7075 47.6666ZM40.1841 55C40.1852 56.4747 40.2641 58.2344 40.5223 59.956C40.8351 62.0414 41.3631 63.7291 42.0617 64.8038C42.6532 65.7139 43.2031 66 44.0004 66C44.7976 66 45.3475 65.7139 45.9391 64.8038C46.6376 63.7291 47.1656 62.0414 47.4784 59.956C47.7367 58.2344 47.8155 56.4747 47.8167 55H40.1841Z" fill="#717171"/>
<path fill-rule="evenodd" clip-rule="evenodd" d="M84.3337 44C84.3337 66.2755 66.2758 84.3333 44.0003 84.3333C21.7248 84.3333 3.66699 66.2755 3.66699 44C3.66699 21.7245 21.7248 3.66663 44.0003 3.66663C66.2758 3.66663 84.3337 21.7245 84.3337 44ZM11.0254 44C11.0254 62.2115 25.7888 76.9749 44.0003 76.9749C62.2119 76.9749 76.9753 62.2115 76.9753 44C76.9753 25.7884 62.2119 11.025 44.0003 11.025C25.7888 11.025 11.0254 25.7884 11.0254 44Z" fill="#717171"/>
</svg>
