<svg width="58" height="58" viewBox="0 0 58 58" fill="none" xmlns="http://www.w3.org/2000/svg">
<path fill-rule="evenodd" clip-rule="evenodd" d="M28.9993 2.41699C14.3178 2.41699 2.41602 14.3188 2.41602 29.0003C2.41602 43.6819 14.3178 55.5837 28.9993 55.5837C43.6809 55.5837 55.5827 43.6819 55.5827 29.0003C55.5827 14.3188 43.6809 2.41699 28.9993 2.41699ZM29.6181 19.9524C29.9598 19.6107 29.9598 19.0567 29.6181 18.7149C29.2764 18.3732 28.7223 18.3732 28.3806 18.7149L18.714 28.3816C18.3723 28.7233 18.3723 29.2773 18.714 29.619L28.3806 39.2857C28.7223 39.6274 29.2764 39.6274 29.6181 39.2857C29.9598 38.944 29.9598 38.39 29.6181 38.0483L21.4451 29.8753H38.666C39.1493 29.8753 39.541 29.4836 39.541 29.0003C39.541 28.5171 39.1493 28.1253 38.666 28.1253H21.4451L29.6181 19.9524Z" fill="#498553"/>
</svg>
