<svg width="35" height="35" viewBox="0 0 35 35" fill="none" xmlns="http://www.w3.org/2000/svg">
<path fill-rule="evenodd" clip-rule="evenodd" d="M17.5007 1.45801C8.64108 1.45801 1.45898 8.64011 1.45898 17.4997C1.45898 26.3592 8.64108 33.5413 17.5007 33.5413C26.3602 33.5413 33.5423 26.3592 33.5423 17.4997C33.5423 8.64011 26.3602 1.45801 17.5007 1.45801ZM25.411 13.7434C25.7527 13.4017 25.7527 12.8477 25.411 12.506C25.0693 12.1642 24.5153 12.1642 24.1736 12.506L16.0423 20.6372L12.286 16.881C11.9443 16.5392 11.3903 16.5392 11.0486 16.881C10.7069 17.2227 10.7069 17.7767 11.0486 18.1184L15.4236 22.4934C15.5877 22.6575 15.8103 22.7497 16.0423 22.7497C16.2744 22.7497 16.4969 22.6575 16.661 22.4934L25.411 13.7434Z" fill="#498553"/>
</svg>
