<svg width="24" height="25" viewBox="0 0 24 25" fill="none" xmlns="http://www.w3.org/2000/svg">
<path fill-rule="evenodd" clip-rule="evenodd" d="M17.8931 3.125C17.3345 3.125 16.7987 3.35616 16.4037 3.76762L4.08616 16.5984C4.02469 16.6624 3.98137 16.7417 3.96066 16.828L3.19393 20.0227C3.10582 20.3898 3.44078 20.7184 3.80613 20.6232L6.83424 19.8347C6.92368 19.8114 7.00492 19.7638 7.06892 19.6971L19.3825 6.87048C19.578 6.66674 19.7332 6.42487 19.839 6.15868C19.9449 5.89248 19.9994 5.60718 19.9994 5.31905C19.9994 5.03092 19.9449 4.74562 19.839 4.47942C19.7332 4.21323 19.578 3.97136 19.3825 3.76762C19.1869 3.56389 18.9547 3.40227 18.6991 3.29201C18.4436 3.18175 18.1697 3.125 17.8931 3.125ZM11.9994 19.8333C11.4471 19.8333 10.9994 20.281 10.9994 20.8333C10.9994 21.3856 11.4471 21.8333 11.9994 21.8333H20.9994C21.5517 21.8333 21.9994 21.3856 21.9994 20.8333C21.9994 20.281 21.5517 19.8333 20.9994 19.8333H11.9994Z" fill="#ACACAC"/>
</svg>
