<svg width="22" height="22" viewBox="0 0 22 22" fill="none" xmlns="http://www.w3.org/2000/svg">
<g clip-path="url(#clip0_1932_1611)">
<path d="M10.9594 7.33366C10.2053 7.33366 9.56931 7.84942 9.3893 8.5488L9.16082 9.43654L7.38535 8.97957L7.61383 8.09183C7.99726 6.60211 9.3485 5.50033 10.9594 5.50033C12.8672 5.50033 14.4138 7.04693 14.4138 8.95476C14.4138 9.9914 13.9202 10.6865 13.3582 11.2332C13.1195 11.4654 12.8474 11.691 12.5919 11.9028C12.5627 11.927 12.5337 11.951 12.5051 11.9749C12.2142 12.2165 11.9272 12.4592 11.6435 12.7395L10.9912 13.3836L9.70301 12.0792L10.3552 11.4351C10.6992 11.0954 11.0383 10.81 11.3335 10.5647C11.3612 10.5417 11.3883 10.5192 11.4149 10.4971C11.6826 10.275 11.8966 10.0974 12.0799 9.9191C12.4529 9.55623 12.5805 9.30499 12.5805 8.95476C12.5805 8.05945 11.8547 7.33366 10.9594 7.33366Z" fill="#ACACAC"/>
<path d="M10.0552 14.667H11.8977V16.5003H10.0552V14.667Z" fill="#ACACAC"/>
<path fill-rule="evenodd" clip-rule="evenodd" d="M0.916016 11.0003C0.916016 5.43145 5.43048 0.916992 10.9993 0.916992C16.5682 0.916992 21.0827 5.43145 21.0827 11.0003C21.0827 16.5692 16.5682 21.0837 10.9993 21.0837C5.43048 21.0837 0.916016 16.5692 0.916016 11.0003ZM10.9993 2.75033C6.443 2.75033 2.74935 6.44398 2.74935 11.0003C2.74935 15.5567 6.443 19.2503 10.9993 19.2503C15.5557 19.2503 19.2494 15.5567 19.2494 11.0003C19.2494 6.44398 15.5557 2.75033 10.9993 2.75033Z" fill="#ACACAC"/>
</g>
<defs>
<clipPath id="clip0_1932_1611">
<rect width="22" height="22" rx="2" fill="white"/>
</clipPath>
</defs>
</svg>
