<svg width="37" height="37" viewBox="0 0 37 37" fill="none" xmlns="http://www.w3.org/2000/svg">
<path fill-rule="evenodd" clip-rule="evenodd" d="M18.4993 1.54199C9.13352 1.54199 1.54102 9.1345 1.54102 18.5003C1.54102 27.8662 9.13352 35.4587 18.4993 35.4587C27.8652 35.4587 35.4577 27.8662 35.4577 18.5003C35.4577 9.1345 27.8652 1.54199 18.4993 1.54199ZM13.9323 11.9277C15.3604 11.1382 17.0064 10.8342 18.6223 11.0616C20.2382 11.2889 21.7364 12.0353 22.8913 13.1881C22.8944 13.1913 22.8976 13.1944 22.9008 13.1975C22.9034 13.2 22.906 13.2025 22.9086 13.205L25.7296 15.8557H22.1982C21.7564 15.8557 21.3982 16.2139 21.3982 16.6557C21.3982 17.0976 21.7564 17.4557 22.1982 17.4557H27.7493C28.1911 17.4557 28.5493 17.0976 28.5493 16.6557V11.1047C28.5493 10.6629 28.1911 10.3047 27.7493 10.3047C27.3075 10.3047 26.9493 10.6629 26.9493 11.1047V14.8062L24.0129 12.0471C22.6138 10.6541 20.8005 9.75227 18.8452 9.47717C16.8858 9.20149 14.8899 9.57007 13.1582 10.5274C11.4265 11.4847 10.0528 12.9789 9.2441 14.7848C8.43542 16.5907 8.23555 18.6105 8.67461 20.5398C9.11367 22.4692 10.1679 24.2036 11.6784 25.4818C13.1889 26.7599 15.0738 27.5125 17.0493 27.6262C19.0247 27.7399 20.9836 27.2085 22.6307 26.1121C24.2779 25.0157 25.5241 23.4137 26.1816 21.5475C26.3285 21.1307 26.1097 20.6739 25.6929 20.5271C25.2762 20.3803 24.8194 20.5991 24.6726 21.0158C24.1303 22.5549 23.1026 23.876 21.7442 24.7802C20.3858 25.6844 18.7703 26.1226 17.1412 26.0289C15.5121 25.9351 13.9576 25.3144 12.7119 24.2604C11.4662 23.2063 10.5968 21.7759 10.2347 20.1848C9.87264 18.5937 10.0375 16.928 10.7044 15.4387C11.3713 13.9494 12.5041 12.7171 13.9323 11.9277Z" fill="#FF9F9F"/>
</svg>
